<svg width="800" height="400" viewBox="0 0 800 400" xmlns="http://www.w3.org/2000/svg">
  <defs>
    <linearGradient id="pipelineGradient" x1="0%" y1="0%" x2="100%" y2="0%">
      <stop offset="0%" style="stop-color:#3b82f6;stop-opacity:1" />
      <stop offset="50%" style="stop-color:#60a5fa;stop-opacity:1" />
      <stop offset="100%" style="stop-color:#38bdf8;stop-opacity:1" />
    </linearGradient>
    <linearGradient id="cardGradient" x1="0%" y1="0%" x2="0%" y2="100%">
      <stop offset="0%" style="stop-color:#1e293b;stop-opacity:1" />
      <stop offset="100%" style="stop-color:#0f172a;stop-opacity:1" />
    </linearGradient>
  </defs>
  
  <!-- Background -->
  <rect width="800" height="400" fill="#0f172a"/>
  
  <!-- Pipeline Steps -->
  <g id="pipeline">
    <!-- Parsing -->
    <g id="parsing">
      <rect x="40" y="150" width="120" height="100" rx="12" fill="url(#cardGradient)" stroke="#3b82f6" stroke-width="2"/>
      <rect x="50" y="160" width="100" height="12" rx="2" fill="#3b82f6" opacity="0.3"/>
      <rect x="50" y="180" width="80" height="8" rx="2" fill="#60a5fa" opacity="0.3"/>
      <rect x="50" y="195" width="90" height="8" rx="2" fill="#60a5fa" opacity="0.3"/>
      <text x="100" y="240" font-family="Arial, sans-serif" font-size="14" font-weight="bold" fill="#60a5fa" text-anchor="middle">Parsing</text>
    </g>
    
    <!-- Arrow 1 -->
    <path d="M 165 200 L 185 200" stroke="url(#pipelineGradient)" stroke-width="3" fill="none" marker-end="url(#arrowhead)"/>
    
    <!-- Extraction -->
    <g id="extraction">
      <rect x="200" y="150" width="120" height="100" rx="12" fill="url(#cardGradient)" stroke="#3b82f6" stroke-width="2"/>
      <circle cx="240" cy="180" r="8" fill="#38bdf8"/>
      <circle cx="260" cy="180" r="8" fill="#60a5fa"/>
      <circle cx="280" cy="180" r="8" fill="#38bdf8"/>
      <line x1="235" y1="200" x2="285" y2="200" stroke="#60a5fa" stroke-width="2"/>
      <line x1="235" y1="215" x2="285" y2="215" stroke="#60a5fa" stroke-width="2"/>
      <text x="260" y="240" font-family="Arial, sans-serif" font-size="14" font-weight="bold" fill="#60a5fa" text-anchor="middle">Extraction</text>
    </g>
    
    <!-- Arrow 2 -->
    <path d="M 325 200 L 345 200" stroke="url(#pipelineGradient)" stroke-width="3" fill="none" marker-end="url(#arrowhead)"/>
    
    <!-- Chunking -->
    <g id="chunking">
      <rect x="360" y="150" width="120" height="100" rx="12" fill="url(#cardGradient)" stroke="#3b82f6" stroke-width="2"/>
      <rect x="375" y="165" width="30" height="20" rx="2" fill="#3b82f6" opacity="0.4"/>
      <rect x="410" y="165" width="30" height="20" rx="2" fill="#60a5fa" opacity="0.4"/>
      <rect x="445" y="165" width="30" height="20" rx="2" fill="#38bdf8" opacity="0.4"/>
      <rect x="375" y="190" width="30" height="20" rx="2" fill="#60a5fa" opacity="0.4"/>
      <rect x="410" y="190" width="30" height="20" rx="2" fill="#38bdf8" opacity="0.4"/>
      <rect x="445" y="190" width="30" height="20" rx="2" fill="#3b82f6" opacity="0.4"/>
      <text x="420" y="240" font-family="Arial, sans-serif" font-size="14" font-weight="bold" fill="#60a5fa" text-anchor="middle">Chunking</text>
    </g>
    
    <!-- Arrow 3 -->
    <path d="M 485 200 L 505 200" stroke="url(#pipelineGradient)" stroke-width="3" fill="none" marker-end="url(#arrowhead)"/>
    
    <!-- Indexing -->
    <g id="indexing">
      <rect x="520" y="150" width="120" height="100" rx="12" fill="url(#cardGradient)" stroke="#3b82f6" stroke-width="2"/>
      <rect x="535" y="165" width="20" height="50" rx="2" fill="#3b82f6" opacity="0.5"/>
      <rect x="560" y="175" width="20" height="40" rx="2" fill="#60a5fa" opacity="0.5"/>
      <rect x="585" y="170" width="20" height="45" rx="2" fill="#38bdf8" opacity="0.5"/>
      <rect x="610" y="180" width="20" height="35" rx="2" fill="#60a5fa" opacity="0.5"/>
      <text x="580" y="240" font-family="Arial, sans-serif" font-size="14" font-weight="bold" fill="#60a5fa" text-anchor="middle">Indexing</text>
    </g>
    
    <!-- Arrow 4 -->
    <path d="M 645 200 L 665 200" stroke="url(#pipelineGradient)" stroke-width="3" fill="none" marker-end="url(#arrowhead)"/>
    
    <!-- Retrieval -->
    <g id="retrieval">
      <rect x="680" y="150" width="120" height="100" rx="12" fill="url(#cardGradient)" stroke="#3b82f6" stroke-width="2"/>
      <circle cx="720" cy="180" r="15" fill="none" stroke="#38bdf8" stroke-width="2"/>
      <circle cx="740" cy="200" r="15" fill="none" stroke="#60a5fa" stroke-width="2"/>
      <circle cx="760" cy="220" r="15" fill="none" stroke="#38bdf8" stroke-width="2"/>
      <line x1="735" y1="185" x2="745" y2="195" stroke="#60a5fa" stroke-width="2"/>
      <line x1="755" y1="205" x2="755" y2="215" stroke="#60a5fa" stroke-width="2"/>
      <text x="740" y="240" font-family="Arial, sans-serif" font-size="14" font-weight="bold" fill="#60a5fa" text-anchor="middle">Retrieval</text>
    </g>
  </g>
  
  <!-- Arrow marker definition -->
  <defs>
    <marker id="arrowhead" markerWidth="10" markerHeight="10" refX="9" refY="3" orient="auto">
      <polygon points="0 0, 10 3, 0 6" fill="#38bdf8"/>
    </marker>
  </defs>
  
  <!-- Title -->
  <text x="400" y="100" font-family="Arial, sans-serif" font-size="24" font-weight="bold" fill="#ffffff" text-anchor="middle">Technical Pipeline</text>
</svg>


